<?xml version="1.0" encoding="iso-8859-1"?>
<!-- Uploaded to: SVG Repo, www.svgrepo.com, Generator: SVG Repo Mixer Tools -->
<!DOCTYPE svg PUBLIC "-//W3C//DTD SVG 1.1//EN" "http://www.w3.org/Graphics/SVG/1.1/DTD/svg11.dtd">
<svg fill="#000000" height="800px" width="800px" version="1.1" id="Capa_1" xmlns="http://www.w3.org/2000/svg" xmlns:xlink="http://www.w3.org/1999/xlink" 
	 viewBox="0 0 477.209 477.209" xml:space="preserve">
<path d="M450.1,127.5c-17.509-10.711-42.162-8.194-66.564,37.57c-8.499,15.939-23.999,52.258-35.188,63.109
	c-6.088,5.904-19.901,7.689-31.234,8.091c43.703-49.653,71.853-128.058,83.087-156.596C416.32,38.73,327.795,0,238.476,0
	C149.158,0,61.969,38.229,76.751,79.674c12.374,34.693,39.378,108.974,81.405,156.516c-10.928-0.537-23.55-2.438-29.295-8.011
	c-11.188-10.85-26.689-47.17-35.188-63.108c-24.402-45.766-49.055-48.282-66.564-37.57c-17.51,10.712-23.914,32.121,3.159,76.359
	c0,0,59.942,109.082,129.786,109.082l0.017-0.074l65.989,0.001v114.08l-118.682-24.461c-5.413-1.118-10.698,2.366-11.812,7.775
	c-1.115,5.409,2.366,10.698,7.775,11.813l85.726,17.669l-85.726,17.669c-5.409,1.114-8.891,6.403-7.775,11.813
	c0.975,4.729,5.138,7.983,9.784,7.983c0.669,0,1.348-0.067,2.029-0.208l131.227-27.047l131.227,27.047
	c0.681,0.141,1.36,0.208,2.029,0.208c4.646,0,8.81-3.255,9.784-7.983c1.115-5.409-2.366-10.698-7.775-11.813l-85.727-17.669
	l85.727-17.669c5.409-1.114,8.891-6.403,7.775-11.813c-1.115-5.409-6.402-8.892-11.813-7.775l-118.682,24.461V312.869l65.99,0.001
	l0.016,0.071c69.844,0,129.786-109.082,129.786-109.082C474.014,159.621,467.61,138.212,450.1,127.5z"/>
</svg>