<?xml version="1.0" encoding="iso-8859-1"?>
<!-- Uploaded to: SVG Repo, www.svgrepo.com, Generator: SVG Repo Mixer Tools -->
<!DOCTYPE svg PUBLIC "-//W3C//DTD SVG 1.1//EN" "http://www.w3.org/Graphics/SVG/1.1/DTD/svg11.dtd">
<svg fill="#000000" height="800px" width="800px" version="1.1" id="Capa_1" xmlns="http://www.w3.org/2000/svg" xmlns:xlink="http://www.w3.org/1999/xlink" 
	 viewBox="0 0 476.773 476.773" xml:space="preserve">
<path d="M354.706,313.373c33.372-17.164,54.247-46.889,54.247-96.13C408.953,123.042,332.588,0,238.387,0
	S67.82,123.042,67.82,217.243c0,49.241,20.875,78.966,54.248,96.131L83.204,464.277c-1.378,5.349,1.841,10.801,7.189,12.178
	c0.837,0.216,1.676,0.318,2.501,0.318c4.453,0,8.516-2.996,9.677-7.508l38.115-147.998c27.673,9.579,61.356,12.98,97.7,12.98
	c36.344,0,70.027-3.401,97.7-12.98l38.116,147.998c1.162,4.512,5.224,7.508,9.677,7.508c0.825,0,1.665-0.103,2.501-0.318
	c5.349-1.377,8.567-6.829,7.19-12.178L354.706,313.373z M134.927,262.197c-7.937-2.025-14.693-7.155-18.533-14.074
	c-3.588-6.464-4.362-13.803-2.183-20.663c3.692-11.635,14.591-19.454,27.118-19.454c2.431,0,4.86,0.305,7.221,0.906
	c29.339,7.506,59.561,11.312,89.837,11.312s60.498-3.806,89.827-11.309c2.371-0.604,4.801-0.909,7.232-0.909
	c12.529,0,23.427,7.819,27.118,19.459c2.178,6.855,1.403,14.194-2.184,20.658c-3.84,6.919-10.597,12.049-18.539,14.076
	c-33.773,8.642-68.582,13.024-103.454,13.024C203.516,275.224,168.707,270.841,134.927,262.197z"/>
</svg>