<svg width="52" height="54" viewBox="0 0 52 54" fill="none" xmlns="http://www.w3.org/2000/svg">
<path d="M50.3217 21.9807L27.9255 1.37611C27.1974 0.706267 26.2386 0.34376 25.2495 0.364357C24.2604 0.384954 23.3175 0.787061 22.618 1.48663L2.01995 22.0848L0.962891 23.1417V53.5076H20.8117V34.561H31.6384V53.5076H51.4872V23.0529L50.3217 21.9807ZM25.3271 3.97247C25.3589 3.97247 25.3393 3.97935 25.3256 3.99277C25.3115 3.97935 25.2953 3.97247 25.3271 3.97247ZM47.8783 49.8987H35.2472V34.561C35.2472 33.6038 34.867 32.6859 34.1902 32.0091C33.5134 31.3323 32.5955 30.9521 31.6384 30.9521H20.8117C19.8546 30.9521 18.9367 31.3323 18.2599 32.0091C17.5831 32.6859 17.2028 33.6038 17.2028 34.561V49.8987H4.57177V24.6366L25.3271 4.03844C25.3286 4.03709 25.3287 4.03585 25.3298 4.0345L47.8783 24.6366V49.8987Z" fill="black"/>
</svg>
