<?xml version="1.0" encoding="iso-8859-1"?>
<!-- Uploaded to: SVG Repo, www.svgrepo.com, Generator: SVG Repo Mixer Tools -->
<svg height="800px" width="800px" version="1.1" id="Capa_1" xmlns="http://www.w3.org/2000/svg" xmlns:xlink="http://www.w3.org/1999/xlink" 
	 viewBox="0 0 330.458 330.458" xml:space="preserve">
<g>
	<g>
		<path style="fill:#010002;" d="M211.388,186.225l-26.385,26.385l112.382,112.382c3.644,3.644,8.42,5.466,13.195,5.466
			c4.776,0,9.551-1.822,13.195-5.466c7.288-7.288,7.288-19.102,0-26.385L211.388,186.225z"/>
		<polygon style="fill:#010002;" points="205.623,176.609 206.792,175.439 186.787,155.434 174.321,142.968 141.447,175.847 
			154.909,189.304 173.918,208.313 175.387,206.845 177.312,204.919 203.697,178.534 		"/>
		<path style="fill:#010002;" d="M113.648,6.491c-0.038-0.158-0.087-0.31-0.12-0.462c-0.174-0.783-0.517-1.49-0.946-2.148
			L112.424,3.5l-0.087,0.087c-0.533-0.734-1.191-1.36-1.953-1.893c-0.789-0.549-1.637-1.006-2.556-1.289
			c-2.817-0.865-5.994-0.413-7.941,2.029c-4.895,6.13-9.665,12.352-14.278,18.689l0.419,1.088l1.071,2.774l1.071,2.774l8.773,22.752
			l12.793,33.162L83.048,60.604l-14.87-12.853l-2.061-1.784l-2.061-1.784l-2.034-1.757c-0.424,1.251-0.582,2.627-0.299,4.09
			c0.158,0.821,0.441,1.664,0.859,2.518c0.054,0.109,0.082,0.223,0.136,0.332c0.424,0.897,0.767,1.822,1.099,2.747l-5.39,5.39
			c-1.218-0.044-2.437-0.109-3.655-0.19c-1.175-0.082-2.355-0.179-3.525-0.321c-1.768-0.212-3.535-0.495-5.287-0.903
			c-4.106-0.957-9.116,1.218-10.035,5.7c-1.458,7.071-3.938,12.836-7.288,17.818c-3.796,5.646-8.773,10.264-14.609,14.609
			c-2.823,2.105-5.803,4.155-9.029,6.211c-2.654,1.692-3.753,4.145-3.78,6.598c-0.016,1.115,0.179,2.23,0.571,3.274
			c1.474,3.894,5.51,6.772,9.964,4.966l121.656,52.03l32.52-32.52L113.648,6.491z"/>
	</g>
</g>
</svg>